<svg width="1600" height="794" fill="none" xmlns="http://www.w3.org/2000/svg"><path fill="url(#a)" d="M-3.358 0h1602.6v659H-3.358z"/><rect width="183.136" height="621.68" rx="91.551" transform="matrix(-.33617 .9418 .94215 .3352 1482.52 367)" fill="url(#b)" fill-opacity=".32"/><rect width="183.284" height="621.179" rx="91.551" transform="rotate(-38.623 367.895 -526.818) skewX(.091)" fill="url(#c)" fill-opacity=".32"/><rect width="183.284" height="621.179" rx="91.551" transform="rotate(-38.623 -298.535 -88) skewX(.091)" fill="#7373FF" fill-opacity=".32"/><rect width="183.284" height="621.179" rx="91.551" transform="rotate(-38.623 -178.557 461.113) skewX(.091)" fill="#7373FF" fill-opacity=".32"/><rect width="183.284" height="621.179" rx="91.551" transform="rotate(-38.623 240.546 723.513) skewX(.091)" fill="#7373FF" fill-opacity=".32"/><rect width="183.349" height="620.958" rx="91.551" transform="matrix(.91066 -.41315 -.41426 -.91016 1390.72 354.92)" fill="url(#d)" fill-opacity=".32"/><ellipse cx="81.779" cy="244" rx="15.024" ry="15" fill="url(#e)"/><ellipse cx="1599.24" cy="340" rx="15.024" ry="15" fill="url(#f)"/><ellipse cx="12.668" cy="617" rx="50.081" ry="50" fill="url(#g)"/><defs><linearGradient id="a" x1="1030.32" y1="558.796" x2="1535.83" y2="-52.445" gradientUnits="userSpaceOnUse"><stop stop-color="#6B50FF"/><stop offset="1" stop-color="#A145FF"/></linearGradient><linearGradient id="b" x1="91.568" y1="0" x2="123.486" y2="581.266" gradientUnits="userSpaceOnUse"><stop stop-color="#7373FF"/><stop offset="1" stop-color="#7373FF" stop-opacity="0"/></linearGradient><linearGradient id="c" x1="91.642" y1="0" x2="123.484" y2="580.804" gradientUnits="userSpaceOnUse"><stop offset=".236" stop-color="#7373FF"/><stop offset="1" stop-color="#7373FF" stop-opacity="0"/></linearGradient><linearGradient id="d" x1="91.675" y1="0" x2="123.482" y2="580.599" gradientUnits="userSpaceOnUse"><stop offset=".236" stop-color="#7373FF"/><stop offset="1" stop-color="#7373FF" stop-opacity="0"/></linearGradient><linearGradient id="e" x1="70.661" y1="233.5" x2="87.15" y2="259.024" gradientUnits="userSpaceOnUse"><stop stop-color="#6E5BFF"/><stop offset="1" stop-color="#6D58FF"/></linearGradient><linearGradient id="f" x1="1588.12" y1="329.5" x2="1604.61" y2="355.024" gradientUnits="userSpaceOnUse"><stop stop-color="#6E5BFF"/><stop offset="1" stop-color="#6D58FF"/></linearGradient><linearGradient id="g" x1="-24.392" y1="582" x2="30.571" y2="667.081" gradientUnits="userSpaceOnUse"><stop stop-color="#6E5BFF"/><stop offset="1" stop-color="#6D58FF"/></linearGradient></defs></svg>