<svg width="1600" height="794" viewBox="0 0 1600 794" fill="none" xmlns="http://www.w3.org/2000/svg">
<rect width="1600" height="659" fill="url(#paint0_linear_3303_380)"/>
<rect width="183.103" height="620.785" rx="91.5514" transform="matrix(-0.335689 0.941973 0.941973 0.335689 1483.47 367)" fill="url(#paint1_linear_3303_380)" fill-opacity="0.32"/>
<rect x="412" y="114.406" width="183.103" height="620.785" rx="91.5514" transform="rotate(-38.6688 412 114.406)" fill="url(#paint2_linear_3303_380)" fill-opacity="0.32"/>
<rect x="-7" y="-205.594" width="183.103" height="620.785" rx="91.5514" transform="rotate(-38.6688 -7 -205.594)" fill="#7373FF" fill-opacity="0.32"/>
<rect x="-323" y="-10.5938" width="183.103" height="620.785" rx="91.5514" transform="rotate(-38.6688 -323 -10.5938)" fill="#7373FF" fill-opacity="0.32"/>
<rect x="-395" y="308.406" width="183.103" height="620.785" rx="91.5514" transform="rotate(-38.6688 -395 308.406)" fill="#7373FF" fill-opacity="0.32"/>
<rect width="183.103" height="620.785" rx="91.5514" transform="matrix(0.91041 -0.413708 -0.413708 -0.91041 1391.82 354.92)" fill="url(#paint3_linear_3303_380)" fill-opacity="0.32"/>
<circle cx="85" cy="244" r="15" fill="url(#paint4_linear_3303_380)"/>
<circle cx="1600" cy="340" r="15" fill="url(#paint5_linear_3303_380)"/>
<circle cx="16" cy="617" r="50" fill="url(#paint6_linear_3303_380)"/>
<defs>
<linearGradient id="paint0_linear_3303_380" x1="1032" y1="558.796" x2="1537.66" y2="-51.6392" gradientUnits="userSpaceOnUse">
<stop stop-color="#6B50FF"/>
<stop offset="1" stop-color="#A145FF"/>
</linearGradient>
<linearGradient id="paint1_linear_3303_380" x1="91.5514" y1="0" x2="123.384" y2="580.434" gradientUnits="userSpaceOnUse">
<stop stop-color="#7373FF"/>
<stop offset="1" stop-color="#7373FF" stop-opacity="0"/>
</linearGradient>
<linearGradient id="paint2_linear_3303_380" x1="503.551" y1="114.406" x2="535.384" y2="694.84" gradientUnits="userSpaceOnUse">
<stop offset="0.236111" stop-color="#7373FF"/>
<stop offset="1" stop-color="#7373FF" stop-opacity="0"/>
</linearGradient>
<linearGradient id="paint3_linear_3303_380" x1="91.5514" y1="0" x2="123.384" y2="580.434" gradientUnits="userSpaceOnUse">
<stop offset="0.236111" stop-color="#7373FF"/>
<stop offset="1" stop-color="#7373FF" stop-opacity="0"/>
</linearGradient>
<linearGradient id="paint4_linear_3303_380" x1="73.9" y1="233.5" x2="90.4" y2="259" gradientUnits="userSpaceOnUse">
<stop stop-color="#6E5BFF"/>
<stop offset="1" stop-color="#6D58FF"/>
</linearGradient>
<linearGradient id="paint5_linear_3303_380" x1="1588.9" y1="329.5" x2="1605.4" y2="355" gradientUnits="userSpaceOnUse">
<stop stop-color="#6E5BFF"/>
<stop offset="1" stop-color="#6D58FF"/>
</linearGradient>
<linearGradient id="paint6_linear_3303_380" x1="-21" y1="582" x2="34" y2="667" gradientUnits="userSpaceOnUse">
<stop stop-color="#6E5BFF"/>
<stop offset="1" stop-color="#6D58FF"/>
</linearGradient>
</defs>
</svg>
